<?xml version="1.0" encoding="UTF-8"?>
<svg version="1.1" xmlns="http://www.w3.org/2000/svg" width="120" height="70">
<path d="M0 0 C0.99 0 1.98 0 3 0 C3 3.96 3 7.92 3 12 C4.381875 11.7525 5.76375 11.505 7.1875 11.25 C10.958976 10.80384748 11.69923683 10.80972126 15.0625 12.9375 C15.701875 13.618125 16.34125 14.29875 17 15 C12.70543612 17.30440013 8.68520915 18.78184562 4 20 C7.17320782 23.53586014 9.16743695 25.58578031 14 26 C14.33 24.02 14.66 22.04 15 20 C16.65 19.67 18.3 19.34 20 19 C20.33 17.68 20.66 16.36 21 15 C23.31 15.33 25.62 15.66 28 16 C28 18.97 28 21.94 28 25 C42.85 25 57.7 25 73 25 C72.67 26.32 72.34 27.64 72 29 C47.25 28.505 47.25 28.505 22 28 C22 28.66 22 29.32 22 30 C21.01 30.33 20.02 30.66 19 31 C18.46375 31.598125 17.9275 32.19625 17.375 32.8125 C12.99968754 36.84239305 7.92845568 39 2 39 C2.33 43.95 2.66 48.9 3 54 C1.68 53.67 0.36 53.34 -1 53 C-0.67 52.34 -0.34 51.68 0 51 C0.2275015 49.12943209 0.40962811 47.25314042 0.5625 45.375 C0.64628906 44.37210938 0.73007812 43.36921875 0.81640625 42.3359375 C0.90728516 41.17964844 0.90728516 41.17964844 1 40 C-0.21236328 40.05220703 -0.21236328 40.05220703 -1.44921875 40.10546875 C-2.51785156 40.13253906 -3.58648438 40.15960938 -4.6875 40.1875 C-6.27111328 40.23970703 -6.27111328 40.23970703 -7.88671875 40.29296875 C-12.34076628 39.87383002 -14.88501354 38.11498646 -18 35 C-18.125 31.375 -18.125 31.375 -18 28 C-21.96 28.495 -21.96 28.495 -26 29 C-26 27.68 -26 26.36 -26 25 C-25.05640625 25.13921875 -25.05640625 25.13921875 -24.09375 25.28125 C-18.61044869 25.75284147 -18.61044869 25.75284147 -13.8359375 23.359375 C-12.52011716 21.94395073 -11.22840526 20.50575625 -9.9609375 19.046875 C-7.02393349 15.98115767 -3.87340025 14.66002868 0 13 C0 12.31292969 0 11.62585937 0 10.91796875 C0 7.27864583 0 3.63932292 0 0 Z M-8.125 24 C-8.74375 24.66 -9.3625 25.32 -10 26 C-8.68 26 -7.36 26 -6 26 C-5.34 24.68 -4.68 23.36 -4 22 C-6.24362573 21.7715451 -6.24362573 21.7715451 -8.125 24 Z M-13 28 C-14.08943338 31.47262619 -14.08943338 31.47262619 -13.0625 34.8125 C-9.84909142 36.66264434 -6.576007 36.43890629 -3 36 C-0.59442147 35.13734032 -0.59442147 35.13734032 1 34 C-0.175625 33.6596875 -0.175625 33.6596875 -1.375 33.3125 C-4 32 -4 32 -5.3125 29.375 C-5.539375 28.59125 -5.76625 27.8075 -6 27 C-8.33859436 27 -10.70030423 27.60856242 -13 28 Z M9 28 C9 28.99 9 29.98 9 31 C9.66 30.01 10.32 29.02 11 28 C10.34 28 9.68 28 9 28 Z " fill="#8E8D8D" transform="translate(30,3)"/>
<path d="M0 0 C0.99 0 1.98 0 3 0 C3 3.96 3 7.92 3 12 C4.381875 11.7525 5.76375 11.505 7.1875 11.25 C10.958976 10.80384748 11.69923683 10.80972126 15.0625 12.9375 C15.701875 13.618125 16.34125 14.29875 17 15 C12.70543612 17.30440013 8.68520915 18.78184562 4 20 C6.80804268 22.96404505 9.18315774 25.44499019 13 27 C12.443125 27.226875 11.88625 27.45375 11.3125 27.6875 C8.78421956 28.96259852 8.78421956 28.96259852 6.625 31.625 C4 34 4 34 0.9375 34.5625 C-2.61734581 33.88178485 -3.777046 32.79927541 -6 30 C-6.33 29.34 -6.66 28.68 -7 28 C-16.405 28.495 -16.405 28.495 -26 29 C-26 27.68 -26 26.36 -26 25 C-25.05640625 25.13921875 -25.05640625 25.13921875 -24.09375 25.28125 C-18.61044869 25.75284147 -18.61044869 25.75284147 -13.8359375 23.359375 C-12.52011716 21.94395073 -11.22840526 20.50575625 -9.9609375 19.046875 C-7.02393349 15.98115767 -3.87340025 14.66002868 0 13 C0 12.31292969 0 11.62585937 0 10.91796875 C0 7.27864583 0 3.63932292 0 0 Z M-8.125 24 C-8.74375 24.66 -9.3625 25.32 -10 26 C-8.68 26 -7.36 26 -6 26 C-5.34 24.68 -4.68 23.36 -4 22 C-6.24362573 21.7715451 -6.24362573 21.7715451 -8.125 24 Z " fill="#8D8C8B" transform="translate(30,3)"/>
<path d="M0 0 C0 1.32 0 2.64 0 4 C0.20625 5.19625 0.4125 6.3925 0.625 7.625 C0.74875 8.73875 0.8725 9.8525 1 11 C-1 13 -1 13 -4.4375 13.25 C-8 13 -8 13 -11 11 C-11.66 11.66 -12.32 12.32 -13 13 C-16.5 13.25 -16.5 13.25 -20 13 C-20.66 12.34 -21.32 11.68 -22 11 C-22.33 11.66 -22.66 12.32 -23 13 C-27.75 12.25 -27.75 12.25 -30 10 C-30.33 10.99 -30.66 11.98 -31 13 C-32.32 13 -33.64 13 -35 13 C-35 8.71 -35 4.42 -35 0 C-33.35 0 -31.7 0 -30 0 C-29.67 0.66 -29.34 1.32 -29 2 C-28.67 1.34 -28.34 0.68 -28 0 C-24.7 0 -21.4 0 -18 0 C-17.8046875 2.05078125 -17.609375 4.1015625 -17.4140625 6.15234375 C-17.27742188 6.76207031 -17.14078125 7.37179688 -17 8 C-16.34 8.33 -15.68 8.66 -15 9 C-15 6.03 -15 3.06 -15 0 C-12.66666667 0 -10.33333333 0 -8 0 C-5.13822943 -1.43088528 -3.06624227 -0.59991697 0 0 Z M-10 6 C-9.67 6.99 -9.34 7.98 -9 9 C-9 8.01 -9 7.02 -9 6 C-9.33 6 -9.66 6 -10 6 Z " fill="#000000" transform="translate(92,42)"/>
<path d="M0 0 C0.99 0 1.98 0 3 0 C3.33 0.66 3.66 1.32 4 2 C4.49242188 1.67386719 4.98484375 1.34773438 5.4921875 1.01171875 C9.00921862 -0.40714583 12.39592886 -0.2508742 16.125 -0.1875 C17.21748047 -0.1865332 17.21748047 -0.1865332 18.33203125 -0.18554688 C23.71851504 -0.14074248 23.71851504 -0.14074248 26 1 C26.99 0.835 27.98 0.67 29 0.5 C32 0 32 0 34 1 C34.09765625 7.15234375 34.09765625 7.15234375 34 9 C33 10 33 10 30.49609375 10.09765625 C28.98208984 10.08025391 28.98208984 10.08025391 27.4375 10.0625 C26.42558594 10.05347656 25.41367188 10.04445313 24.37109375 10.03515625 C23.19740234 10.01775391 23.19740234 10.01775391 22 10 C21.67 9.34 21.34 8.68 21 8 C20.67 8.66 20.34 9.32 20 10 C16.37 10 12.74 10 9 10 C8.67 8.35 8.34 6.7 8 5 C7.34 6.65 6.68 8.3 6 10 C4.125 9.8125 4.125 9.8125 2 9 C0.21715186 5.70173093 0 3.8225249 0 0 Z M14 3 C14.33 3.99 14.66 4.98 15 6 C14.01 6.33 13.02 6.66 12 7 C13.65 7 15.3 7 17 7 C17 5.68 17 4.36 17 3 C16.01 3 15.02 3 14 3 Z M25 5 C24.67 5.66 24.34 6.32 24 7 C24.66 7.66 25.32 8.32 26 9 C26.33 7.68 26.66 6.36 27 5 C26.34 5 25.68 5 25 5 Z " fill="#0096D9" transform="translate(62,58)"/>
<path d="M0 0 C5.61 0 11.22 0 17 0 C17 4.29 17 8.58 17 13 C11.33333333 13 5.66666667 13 0 13 C0 8.71 0 4.42 0 0 Z " fill="#000000" transform="translate(39,42)"/>
<path d="M0 0 C3.93093968 0.98273492 4.41796451 1.60322994 6.5 4.875 C8.58334635 6.1266467 8.58334635 6.1266467 10.5 6.875 C9.943125 7.101875 9.38625 7.32875 8.8125 7.5625 C6.28421956 8.83759852 6.28421956 8.83759852 4.125 11.5 C1.5 13.875 1.5 13.875 -1.5625 14.4375 C-5.11734581 13.75678485 -6.277046 12.67427541 -8.5 9.875 C-8.83 9.215 -9.16 8.555 -9.5 7.875 C-11.48 7.875 -13.46 7.875 -15.5 7.875 C-15.17 7.215 -14.84 6.555 -14.5 5.875 C-12.52 5.875 -10.54 5.875 -8.5 5.875 C-8.231875 5.25625 -7.96375 4.6375 -7.6875 4 C-5.67248639 0.39418617 -4.05253893 -0.14473353 0 0 Z " fill="#DD7D1B" transform="translate(32.5,23.125)"/>
<path d="M0 0 C0.99 0 1.98 0 3 0 C3.33 1.98 3.66 3.96 4 6 C4.66 4.02 5.32 2.04 6 0 C8.875 -0.125 8.875 -0.125 12 0 C12.66 0.66 13.32 1.32 14 2 C14.33 1.34 14.66 0.68 15 0 C15.99 0 16.98 0 18 0 C18 3.3 18 6.6 18 10 C16.68 9.67 15.36 9.34 14 9 C12.32345271 9.27942455 10.65391846 9.60828247 9 10 C8.34 10 7.68 10 7 10 C5.7625 10.061875 5.7625 10.061875 4.5 10.125 C2 10 2 10 0 8 C-0.26991906 5.31160615 -0.08737357 2.70858064 0 0 Z " fill="#0095D8" transform="translate(39,58)"/>
<path d="M0 0 C2.29141286 -0.05384521 4.58318188 -0.09272087 6.875 -0.125 C8.78925781 -0.15980469 8.78925781 -0.15980469 10.7421875 -0.1953125 C14 0 14 0 16 2 C16.33 1.34 16.66 0.68 17 0 C18.32 0.33 19.64 0.66 21 1 C20.525625 1.7425 20.05125 2.485 19.5625 3.25 C18.22130673 5.61050015 17.487688 7.36648477 17 10 C16.01 10 15.02 10 14 10 C13.5978125 8.5459375 13.5978125 8.5459375 13.1875 7.0625 C12.795625 6.051875 12.40375 5.04125 12 4 C11.01 3.67 10.02 3.34 9 3 C9 5.31 9 7.62 9 10 C8.01 10 7.02 10 6 10 C6 7.69 6 5.38 6 3 C5.01 3 4.02 3 3 3 C3 5.31 3 7.62 3 10 C2.01 10 1.02 10 0 10 C0 6.7 0 3.4 0 0 Z " fill="#0096D7" transform="translate(97,58)"/>
<path d="M0 0 C-0.33 1.32 -0.66 2.64 -1 4 C-25.75 3.505 -25.75 3.505 -51 3 C-51 2.34 -51 1.68 -51 1 C-44.2190033 0.85714668 -37.4379965 0.71477985 -30.65698242 0.57275391 C-28.34936287 0.52436388 -26.04174567 0.4758618 -23.73413086 0.42724609 C-20.42041624 0.35745369 -17.10669344 0.28806209 -13.79296875 0.21875 C-12.7585112 0.19687622 -11.72405365 0.17500244 -10.6582489 0.15246582 C-9.21709465 0.12243469 -9.21709465 0.12243469 -7.74682617 0.09179688 C-6.90077316 0.07403198 -6.05472015 0.05626709 -5.18302917 0.03796387 C-3.45556764 0.00792253 -1.72772274 0 0 0 Z " fill="#150404" transform="translate(103,28)"/>
<path d="M0 0 C1.65 0 3.3 0 5 0 C4.95875 0.78375 4.9175 1.5675 4.875 2.375 C4.71271266 5.16116119 4.71271266 5.16116119 7 7 C9.89883083 7.24339551 9.89883083 7.24339551 13.125 7.125 C14.76855469 7.09792969 14.76855469 7.09792969 16.4453125 7.0703125 C17.28835937 7.04710937 18.13140625 7.02390625 19 7 C19 8.65 19 10.3 19 12 C17.10489301 12.08160748 15.20875496 12.13946459 13.3125 12.1875 C11.72888672 12.23970703 11.72888672 12.23970703 10.11328125 12.29296875 C5.65923372 11.87383002 3.11498646 10.11498646 0 7 C-0.125 3.375 -0.125 3.375 0 0 Z " fill="#939292" transform="translate(12,31)"/>
<path d="M0 0 C2.8125 2 2.8125 2 5 4 C0.00703705 6.9445679 -4.33557626 7.63495936 -10 8 C-10 6.02 -10 4.04 -10 2 C-6.51882622 0.40860627 -3.83068199 -0.5746023 0 0 Z " fill="#8F8D8D" transform="translate(42,14)"/>
<path d="M0 0 C0.99 0 1.98 0 3 0 C3 3.3 3 6.6 3 10 C2.01 10 1.02 10 0 10 C0 6.7 0 3.4 0 0 Z " fill="#0095D8" transform="translate(58,58)"/>
<path d="M0 0 C0.33 0 0.66 0 1 0 C1.33 6.27 1.66 12.54 2 19 C0.68 18.67 -0.64 18.34 -2 18 C-1.67 17.34 -1.34 16.68 -1 16 C-0.7677354 13.28737884 -0.58063765 10.59226874 -0.4375 7.875 C-0.39431641 7.12089844 -0.35113281 6.36679687 -0.30664062 5.58984375 C-0.2005168 3.72678112 -0.09974999 1.86341476 0 0 Z " fill="#5C1A18" transform="translate(31,38)"/>
<path d="M0 0 C0.99 0 1.98 0 3 0 C2.67 6.27 2.34 12.54 2 19 C1.67 19 1.34 19 1 19 C0.83218705 16.39590255 0.66570349 13.7917318 0.5 11.1875 C0.45230469 10.44951172 0.40460937 9.71152344 0.35546875 8.95117188 C0.16609387 5.96175412 0 2.99625426 0 0 Z " fill="#5C1A19" transform="translate(30,3)"/>
<path d="M0 0 C3.3 0.33 6.6 0.66 10 1 C9.67 1.66 9.34 2.32 9 3 C6.93359375 3.4140625 6.93359375 3.4140625 4.4375 3.625 C3.61121094 3.69976563 2.78492188 3.77453125 1.93359375 3.8515625 C0.97646484 3.92503906 0.97646484 3.92503906 0 4 C0 2.68 0 1.36 0 0 Z " fill="#60130E" transform="translate(4,28)"/>
<path d="M0 0 C0.99 0 1.98 0 3 0 C3 0.99 3 1.98 3 3 C2.34 3 1.68 3 1 3 C1 5.31 1 7.62 1 10 C0.34 10 -0.32 10 -1 10 C-1.125 2.25 -1.125 2.25 0 0 Z " fill="#898888" transform="translate(60,12)"/>
<path d="M0 0 C0.99 0 1.98 0 3 0 C3 0.99 3 1.98 3 3 C2.01 3 1.02 3 0 3 C0 2.01 0 1.02 0 0 Z " fill="#979696" transform="translate(63,16)"/>
<path d="M0 0 C0.66 0 1.32 0 2 0 C2 0.99 2 1.98 2 3 C1.34 3 0.68 3 0 3 C0 2.01 0 1.02 0 0 Z " fill="#929292" transform="translate(62,23)"/>
</svg>
